<svg width="339" height="418" fill="none" xmlns="http://www.w3.org/2000/svg"><mask id="a" style="mask-type:alpha" maskUnits="userSpaceOnUse" x="0" y="0" width="339" height="418"><path fill="#D9D9D9" d="M0 0h339v418H0z"/></mask><g mask="url(#a)" stroke="#737373"><path d="M30.145 28.601C56.111 2.634 99.822-.846 149.66 14.744c49.814 15.583 105.606 50.183 155.548 100.124 49.942 49.942 84.541 105.735 100.124 155.548 15.591 49.839 12.111 93.549-13.857 119.517-25.967 25.967-69.678 29.447-119.517 13.857-49.813-15.583-105.606-50.183-155.547-100.124C66.47 253.724 31.87 197.931 16.288 148.118.697 98.279 4.177 54.568 30.145 28.601Z"/><path d="M391.437 28.106c25.968 25.967 29.448 69.678 13.857 119.517-15.582 49.813-50.182 105.606-100.124 155.547-49.941 49.942-105.734 84.542-155.547 100.124-49.84 15.591-93.55 12.111-119.517-13.857C4.138 363.47.658 319.759 16.249 269.92c15.583-49.813 50.182-105.605 100.124-155.547 49.942-49.942 105.734-84.541 155.548-100.124 49.838-15.59 93.549-12.11 119.516 13.857Z"/></g></svg>