<svg width="339" height="418" viewBox="0 0 339 418" fill="none" xmlns="http://www.w3.org/2000/svg">
<mask id="mask0_17025_175" style="mask-type:alpha" maskUnits="userSpaceOnUse" x="0" y="0" width="339" height="418">
<rect width="339" height="418" fill="#D9D9D9"/>
</mask>
<g mask="url(#mask0_17025_175)">
<path d="M30.1445 28.6012C56.1121 2.6337 99.8226 -0.846323 149.661 14.7443C199.475 30.327 255.267 64.9266 305.209 114.868C355.151 164.81 389.75 220.603 405.333 270.416C420.924 320.255 417.444 363.965 391.476 389.933C365.509 415.9 321.798 419.38 271.959 403.79C222.146 388.207 166.353 353.607 116.412 303.666C66.4699 253.724 31.8703 197.931 16.2876 148.118C0.696957 98.2793 4.17698 54.5688 30.1445 28.6012Z" stroke="#737373"/>
<path d="M391.437 28.1059C417.405 54.0734 420.885 97.7839 405.294 147.623C389.712 197.436 355.112 253.229 305.17 303.17C255.229 353.112 199.436 387.712 149.623 403.294C99.7839 418.885 56.0734 415.405 30.1059 389.437C4.13834 363.47 0.658322 319.759 16.2489 269.92C31.8316 220.107 66.4312 164.315 116.373 114.373C166.315 64.4312 222.107 29.8316 271.921 14.2489C321.759 -1.34171 365.47 2.13831 391.437 28.1059Z" stroke="#737373"/>
</g>
</svg>
